<?xml version="1.0" standalone="no"?>
<!DOCTYPE svg PUBLIC "-//W3C//DTD SVG 20010904//EN"
 "http://www.w3.org/TR/2001/REC-SVG-20010904/DTD/svg10.dtd">
<svg version="1.0" xmlns="http://www.w3.org/2000/svg"
 width="640.000000pt" height="640.000000pt" viewBox="0 0 640.000000 640.000000"
 preserveAspectRatio="xMidYMid meet">
<metadata>
Created by potrace 1.14, written by Peter Selinger 2001-2017
</metadata>
<g transform="translate(0.000000,640.000000) scale(0.100000,-0.100000)"
fill="#000000" stroke="none">
<path d="M0 3200 l0 -3200 3200 0 3200 0 0 3200 0 3200 -3200 0 -3200 0 0
-3200z m2948 568 c77 -19 182 -98 182 -135 0 -18 -100 -113 -119 -113 -11 0
-41 14 -67 32 -39 26 -59 32 -118 36 -65 4 -77 2 -134 -27 -116 -58 -177 -182
-177 -356 0 -86 4 -108 26 -155 63 -135 202 -166 335 -75 29 20 60 35 67 32 7
-3 32 -30 56 -61 l43 -56 -43 -39 c-60 -54 -129 -86 -228 -106 -101 -21 -193
-10 -279 32 -71 35 -154 126 -182 200 -45 119 -39 330 13 460 103 255 370 396
625 331z m-1536 1 c13 -7 153 -414 213 -616 9 -33 17 -29 46 25 14 26 72 128
129 227 57 99 112 196 123 215 89 160 95 164 235 158 l87 -3 -3 -50 c-3 -50
-44 -399 -92 -790 -5 -38 -12 -96 -15 -127 -5 -49 -10 -59 -29 -64 -24 -6
-175 2 -182 9 -3 2 0 37 6 78 5 41 21 169 35 284 14 116 28 222 31 238 10 49
-12 28 -62 -58 -27 -47 -77 -134 -111 -193 -34 -59 -76 -133 -94 -164 -36 -66
-75 -90 -137 -84 -68 7 -54 -20 -161 296 -42 124 -81 226 -86 228 -6 1 -15
-46 -22 -110 -6 -62 -16 -153 -22 -203 -6 -49 -16 -137 -22 -195 -6 -58 -15
-110 -20 -116 -10 -13 -186 -17 -194 -4 -3 5 6 100 19 212 14 112 30 244 36
293 29 247 61 501 65 513 5 15 198 15 227 1z m2269 -1 c71 -13 164 -62 215
-115 23 -23 59 -77 80 -120 l39 -78 0 -130 c0 -141 -10 -184 -68 -300 -38 -77
-138 -175 -218 -215 -113 -57 -180 -68 -409 -66 -113 0 -210 4 -216 8 -7 5 -8
26 -3 65 5 32 11 78 14 103 3 25 7 63 10 85 3 22 16 135 30 250 13 116 29 242
35 280 5 39 13 104 16 145 4 41 11 81 17 88 12 16 371 16 458 0z m743 3 c4 -5
-14 -173 -39 -373 -24 -199 -52 -427 -62 -506 -20 -166 -7 -153 -153 -149
l-95 2 2 30 c5 58 37 333 63 530 5 44 17 139 25 210 26 228 28 240 38 253 11
14 212 17 221 3z m742 -7 c59 -17 149 -81 159 -114 7 -22 4 -27 -54 -92 -42
-47 -66 -48 -126 -6 -38 27 -57 33 -115 36 -124 7 -213 -51 -273 -178 -26 -57
-31 -79 -35 -175 -3 -94 -1 -119 17 -169 36 -102 87 -140 192 -140 55 0 73 4
113 29 108 67 91 67 147 5 27 -30 49 -61 49 -67 0 -17 -95 -92 -145 -114 -124
-55 -290 -55 -410 2 -63 30 -137 114 -171 196 -27 64 -29 77 -29 208 0 153 9
196 69 310 63 121 217 245 342 274 64 15 211 13 270 -5z"/>
<path d="M3435 3579 c-3 -5 -12 -64 -21 -131 -8 -68 -25 -208 -38 -313 -13
-104 -21 -193 -19 -197 6 -12 153 -9 198 3 140 38 225 176 225 364 0 114 -20
173 -74 223 -26 24 -58 43 -78 46 -63 10 -188 14 -193 5z"/>
</g>
</svg>
